<svg xmlns="http://www.w3.org/2000/svg" viewBox="0 0 512 512">
  <defs>
    <filter id="glow" x="-80%" y="-80%" width="260%" height="260%">
      <feGaussianBlur stdDeviation="8" result="blur"/>
      <feMerge>
        <feMergeNode in="blur"/>
        <feMergeNode in="SourceGraphic"/>
      </feMerge>
    </filter>
  </defs>
  <rect width="512" height="512" rx="64" fill="#020617"/>
  <path d="M420 104 C346 56 164 58 94 132 C38 196 118 246 260 252 C422 260 464 334 378 388 C306 438 152 436 86 382" fill="none" stroke="#39ff14" stroke-width="10" stroke-linecap="round" stroke-linejoin="round" filter="url(#glow)"/>
  <path d="M420 104 C346 56 164 58 94 132 C38 196 118 246 260 252 C422 260 464 334 378 388 C306 438 152 436 86 382" fill="none" stroke="#aeff9c" stroke-width="3" stroke-linecap="round" stroke-linejoin="round"/>
  <polygon points="256,154 358,256 256,358 154,256" fill="#07111f" stroke="#39ff14" stroke-width="6" filter="url(#glow)"/>
  <polygon points="256,182 330,256 256,330 182,256" fill="#030a12" stroke="#67ff4e" stroke-width="3"/>
  <g fill="#67ff4e">
    <circle cx="206" cy="206" r="4"/><circle cx="306" cy="206" r="4"/><circle cx="206" cy="306" r="4"/><circle cx="306" cy="306" r="4"/>
    <circle cx="256" cy="256" r="4"/><circle cx="232" cy="256" r="4"/><circle cx="280" cy="256" r="4"/>
  </g>
  <path d="M218 248 H196 V226 M294 264 H316 V286 M248 294 V316 H226 M264 218 V196 H286" fill="none" stroke="#8cff6e" stroke-width="2" stroke-linecap="round" stroke-linejoin="round"/>
</svg>
