<svg xmlns="http://www.w3.org/2000/svg" viewBox="0 0 512 512">
  <defs>
    <filter id="glow" x="-80%" y="-80%" width="260%" height="260%">
      <feGaussianBlur stdDeviation="8" result="blur"/>
      <feMerge>
        <feMergeNode in="blur"/>
        <feMergeNode in="SourceGraphic"/>
      </feMerge>
    </filter>
  </defs>
  <rect width="512" height="512" rx="64" fill="#020617"/>
  <path d="M283.0 158.7 C235.6 128.0 119.1 129.3 74.3 176.6 C38.5 217.6 89.7 249.6 180.6 253.4 C284.2 258.6 311.1 305.9 256.1 340.5 C210.0 372.5 111.4 371.2 69.2 336.6" fill="none" stroke="#39ff14" stroke-width="8" stroke-linecap="round" stroke-linejoin="round" filter="url(#glow)"/>
  <path d="M439.0 158.7 C391.6 128.0 275.1 129.3 230.3 176.6 C194.5 217.6 245.7 249.6 336.6 253.4 C440.2 258.6 467.1 305.9 412.1 340.5 C366.0 372.5 267.4 371.2 225.2 336.6" fill="none" stroke="#39ff14" stroke-width="8" stroke-linecap="round" stroke-linejoin="round" filter="url(#glow)"/>
  <path d="M283.0 158.7 C235.6 128.0 119.1 129.3 74.3 176.6 C38.5 217.6 89.7 249.6 180.6 253.4 C284.2 258.6 311.1 305.9 256.1 340.5 C210.0 372.5 111.4 371.2 69.2 336.6" fill="none" stroke="#aeff9c" stroke-width="2" stroke-linecap="round" stroke-linejoin="round"/>
  <path d="M439.0 158.7 C391.6 128.0 275.1 129.3 230.3 176.6 C194.5 217.6 245.7 249.6 336.6 253.4 C440.2 258.6 467.1 305.9 412.1 340.5 C366.0 372.5 267.4 371.2 225.2 336.6" fill="none" stroke="#aeff9c" stroke-width="2" stroke-linecap="round" stroke-linejoin="round"/>

  <polygon points="178,182 252,256 178,330 104,256" fill="#07111f" stroke="#39ff14" stroke-width="5" filter="url(#glow)"/>
  <polygon points="178,202 232,256 178,310 124,256" fill="#030a12" stroke="#67ff4e" stroke-width="2.4"/>
  <polygon points="178,234 200,256 178,278 156,256" fill="#09221c" stroke="#aeff9c" stroke-width="1.8"/>
  <g fill="#67ff4e">
    <circle cx="142" cy="220" r="3"/><circle cx="214" cy="220" r="3"/>
    <circle cx="142" cy="292" r="3"/><circle cx="214" cy="292" r="3"/>
    <circle cx="178" cy="256" r="3.5"/><circle cx="160" cy="256" r="3"/><circle cx="196" cy="256" r="3"/>
  </g>
  <path d="M150 250 H134 V234 M206 262 H222 V278 M172 280 V296 H154 M184 232 V216 H202" fill="none" stroke="#8cff6e" stroke-width="1.8" stroke-linecap="round" stroke-linejoin="round"/>

  <polygon points="334,182 408,256 334,330 260,256" fill="#07111f" stroke="#39ff14" stroke-width="5" filter="url(#glow)"/>
  <polygon points="334,202 388,256 334,310 280,256" fill="#030a12" stroke="#67ff4e" stroke-width="2.4"/>
  <polygon points="334,234 356,256 334,278 312,256" fill="#09221c" stroke="#aeff9c" stroke-width="1.8"/>
  <g fill="#67ff4e">
    <circle cx="298" cy="220" r="3"/><circle cx="370" cy="220" r="3"/>
    <circle cx="298" cy="292" r="3"/><circle cx="370" cy="292" r="3"/>
    <circle cx="334" cy="256" r="3.5"/><circle cx="316" cy="256" r="3"/><circle cx="352" cy="256" r="3"/>
  </g>
  <path d="M306 250 H290 V234 M362 262 H378 V278 M328 280 V296 H310 M340 232 V216 H358" fill="none" stroke="#8cff6e" stroke-width="1.8" stroke-linecap="round" stroke-linejoin="round"/>

</svg>
