<svg xmlns="http://www.w3.org/2000/svg" viewBox="0 0 512 512">
  <defs>
    <filter id="glow" x="-80%" y="-80%" width="260%" height="260%">
      <feGaussianBlur stdDeviation="8" result="blur"/>
      <feMerge>
        <feMergeNode in="blur"/>
        <feMergeNode in="SourceGraphic"/>
      </feMerge>
    </filter>
  </defs>
  <rect width="512" height="512" rx="64" fill="#020617"/>
  <path d="M275.0 158.7 C227.6 128.0 111.1 129.3 66.3 176.6 C30.5 217.6 81.7 249.6 172.6 253.4 C276.2 258.6 303.1 305.9 248.1 340.5 C202.0 372.5 103.4 371.2 61.2 336.6" fill="none" stroke="#39ff14" stroke-width="8" stroke-linecap="round" stroke-linejoin="round" filter="url(#glow)"/>
  <path d="M447.0 158.7 C399.6 128.0 283.1 129.3 238.3 176.6 C202.5 217.6 253.7 249.6 344.6 253.4 C448.2 258.6 475.1 305.9 420.1 340.5 C374.0 372.5 275.4 371.2 233.2 336.6" fill="none" stroke="#39ff14" stroke-width="8" stroke-linecap="round" stroke-linejoin="round" filter="url(#glow)"/>
  <path d="M275.0 158.7 C227.6 128.0 111.1 129.3 66.3 176.6 C30.5 217.6 81.7 249.6 172.6 253.4 C276.2 258.6 303.1 305.9 248.1 340.5 C202.0 372.5 103.4 371.2 61.2 336.6" fill="none" stroke="#aeff9c" stroke-width="2" stroke-linecap="round" stroke-linejoin="round"/>
  <path d="M447.0 158.7 C399.6 128.0 283.1 129.3 238.3 176.6 C202.5 217.6 253.7 249.6 344.6 253.4 C448.2 258.6 475.1 305.9 420.1 340.5 C374.0 372.5 275.4 371.2 233.2 336.6" fill="none" stroke="#aeff9c" stroke-width="2" stroke-linecap="round" stroke-linejoin="round"/>

  <polygon points="170,182 244,256 170,330 96,256" fill="#07111f" stroke="#39ff14" stroke-width="5" filter="url(#glow)"/>
  <polygon points="170,202 224,256 170,310 116,256" fill="#030a12" stroke="#67ff4e" stroke-width="2.4"/>
  <polygon points="170,234 192,256 170,278 148,256" fill="#09221c" stroke="#aeff9c" stroke-width="1.8"/>
  <g fill="#67ff4e">
    <circle cx="134" cy="220" r="3"/><circle cx="206" cy="220" r="3"/>
    <circle cx="134" cy="292" r="3"/><circle cx="206" cy="292" r="3"/>
    <circle cx="170" cy="256" r="3.5"/><circle cx="152" cy="256" r="3"/><circle cx="188" cy="256" r="3"/>
  </g>
  <path d="M142 250 H126 V234 M198 262 H214 V278 M164 280 V296 H146 M176 232 V216 H194" fill="none" stroke="#8cff6e" stroke-width="1.8" stroke-linecap="round" stroke-linejoin="round"/>

  <polygon points="342,182 416,256 342,330 268,256" fill="#07111f" stroke="#39ff14" stroke-width="5" filter="url(#glow)"/>
  <polygon points="342,202 396,256 342,310 288,256" fill="#030a12" stroke="#67ff4e" stroke-width="2.4"/>
  <polygon points="342,234 364,256 342,278 320,256" fill="#09221c" stroke="#aeff9c" stroke-width="1.8"/>
  <g fill="#67ff4e">
    <circle cx="306" cy="220" r="3"/><circle cx="378" cy="220" r="3"/>
    <circle cx="306" cy="292" r="3"/><circle cx="378" cy="292" r="3"/>
    <circle cx="342" cy="256" r="3.5"/><circle cx="324" cy="256" r="3"/><circle cx="360" cy="256" r="3"/>
  </g>
  <path d="M314 250 H298 V234 M370 262 H386 V278 M336 280 V296 H318 M348 232 V216 H366" fill="none" stroke="#8cff6e" stroke-width="1.8" stroke-linecap="round" stroke-linejoin="round"/>

</svg>
