<svg xmlns="http://www.w3.org/2000/svg" viewBox="0 0 512 512" role="img" aria-labelledby="title desc">
  <title id="title">SmartTrade by SmartSleeve</title>
  <desc id="desc">Leaves circling in wind with a green to orange horizontal gradient.</desc>
  <defs>
    <linearGradient id="leafGradient" x1="78" y1="0" x2="434" y2="0" gradientUnits="userSpaceOnUse">
      <stop offset="0" stop-color="#39ff14"/>
      <stop offset=".45" stop-color="#b9f83b"/>
      <stop offset=".72" stop-color="#ffb238"/>
      <stop offset="1" stop-color="#ff6b1a"/>
    </linearGradient>
    <radialGradient id="windGlow" cx="48%" cy="48%" r="64%">
      <stop offset="0" stop-color="#39ff14" stop-opacity=".18"/>
      <stop offset=".58" stop-color="#ff9f1c" stop-opacity=".12"/>
      <stop offset="1" stop-color="#000" stop-opacity="0"/>
    </radialGradient>
    <filter id="leafGlow" x="-35%" y="-35%" width="170%" height="170%">
      <feGaussianBlur stdDeviation="5" result="blur"/>
      <feColorMatrix in="blur" type="matrix" values="0 0 0 0 0.85 0 0 0 0 1 0 0 0 0 0.1 0 0 0 .72 0"/>
      <feMerge>
        <feMergeNode/>
        <feMergeNode in="SourceGraphic"/>
      </feMerge>
    </filter>
  </defs>
  <rect width="512" height="512" rx="108" fill="#020617"/>
  <circle cx="256" cy="256" r="214" fill="url(#windGlow)"/>
  <path d="M136 292c29 73 119 111 194 78 61-27 95-87 89-148" fill="none" stroke="url(#leafGradient)" stroke-width="9" stroke-linecap="round" stroke-dasharray="1 22" opacity=".72"/>
  <path d="M376 220c-30-72-120-108-194-75-58 26-92 81-89 139" fill="none" stroke="url(#leafGradient)" stroke-width="9" stroke-linecap="round" stroke-dasharray="1 22" opacity=".56"/>
  <g filter="url(#leafGlow)" fill="url(#leafGradient)">
    <path d="M117 257c44-36 86-40 125-12-38 26-78 30-125 12Z"/>
    <path d="M162 149c52-8 88 10 110 52-43 7-79-10-110-52Z"/>
    <path d="M283 103c46 20 67 55 63 104-38-17-60-51-63-104Z"/>
    <path d="M388 183c20 44 12 84-24 120-17-37-9-78 24-120Z"/>
    <path d="M361 328c-17 47-50 72-99 75 15-41 48-66 99-75Z"/>
    <path d="M220 385c-49 11-86-5-112-47 43-9 80 7 112 47Z"/>
  </g>
  <g fill="none" stroke="#020617" stroke-width="4" stroke-linecap="round" opacity=".82">
    <path d="M137 254c35-12 63-15 93-9"/>
    <path d="M180 153c27 26 52 41 83 49"/>
    <path d="M290 116c23 30 38 57 50 86"/>
    <path d="M384 195c-8 37-17 66-20 98"/>
    <path d="M349 336c-34 15-59 35-82 61"/>
    <path d="M208 381c-30-23-58-35-91-41"/>
  </g>
</svg>
